<?xml version="1.0" standalone="no"?>
<svg viewBox="0 0 200 200" xmlns="http://www.w3.org/2000/svg">
  <path fill="#8EADFF" d="M34.9,-49.6C44,-41.4,49.3,-29.6,53.9,-17.1C58.4,-4.7,62.2,8.4,60.2,21.1C58.1,33.8,50.3,46.1,39.3,53.7C28.3,61.2,14.2,64,1.4,62.1C-11.4,60.2,-22.8,53.6,-33.3,45.9C-43.8,38.2,-53.5,29.4,-59,17.9C-64.5,6.4,-65.8,-7.7,-62.8,-21.5C-59.8,-35.3,-52.6,-48.9,-41.4,-56.4C-30.3,-63.9,-15.1,-65.3,-1.1,-63.7C12.9,-62.2,25.8,-57.7,34.9,-49.6Z" transform="translate(100 100)" />
</svg>
