<svg width="682" height="784" xmlns="http://www.w3.org/2000/svg">

 <g>
  <title>background</title>
  <rect fill="none" id="canvas_background" height="786" width="684" y="-1" x="-1"/>
 </g>
 <g>
  <title>Layer 1</title>
     <defs>
         <linearGradient id="grad1" x1="0%" y1="0%" x2="100%" y2="0%">
             <stop offset="0%" style="stop-color:#3D5AFF;stop-opacity:1" />
             <stop offset="100%" style="stop-color:#6176ed;stop-opacity:1" />
         </linearGradient>
     </defs>
  <path stroke="null" transform="rotate(41.40719223022461 173.85002136230472,462.5363464355469) " id="svg_1" d="m-646.912636,25.209241l54.71751,48.591903c54.71751,48.591903 164.152531,145.775708 273.587551,161.871775c109.43502,17.310865 218.870041,-49.503001 328.305061,32.495835c109.43502,81.998835 218.870041,306.736385 328.305061,307.647483c109.43502,-0.911098 218.870041,-225.648647 328.305061,-210.463678c109.43502,15.18497 218.870041,276.366446 273.587551,404.831288l54.71751,129.67964l0,0l-54.71751,0c-54.71751,0 -164.152531,0 -273.587551,0c-109.43502,0 -218.870041,0 -328.305061,0c-109.43502,0 -218.870041,0 -328.305061,0c-109.43502,0 -218.870041,0 -328.305061,0c-109.43502,0 -218.870041,0 -273.587551,0l-54.71751,0l0,-874.654245z" fill="url(#grad1)"/>
 </g>
</svg>
